<?xml version="1.0" encoding="utf-8"?>
<!-- Generator: Adobe Illustrator 21.1.0, SVG Export Plug-In . SVG Version: 6.00 Build 0)  -->
<svg version="1.1" id="Layer_1" xmlns="http://www.w3.org/2000/svg" xmlns:xlink="http://www.w3.org/1999/xlink" x="0px" y="0px"
	 viewBox="0 0 118 56" style="enable-background:new 0 0 118 56;" xml:space="preserve">
<style type="text/css">
	.st0{fill:#FFFFFF;}
</style>
<path class="st0" d="M74.9,35.4c2.3,0,4.4-0.5,6.3-2c-2-0.3-3.4-1.3-4.2-3.3c0.6,0,1.1,0,1.6,0c-1.9-1-3.1-2.4-3.2-4.7
	c0.6,0.2,1.2,0.4,1.8,0.5c-1.8-1.8-2.3-3.8-1.2-6.3c2.5,3,5.6,4.6,9.4,4.9c-0.3-1.6,0.1-3,1.1-4.2c1.7-1.9,4.4-2.1,6.3-0.5
	c0.4,0.3,0.7,0.4,1.1,0.2c0.7-0.3,1.4-0.5,2.2-0.8c-0.3,1-0.9,1.7-1.6,2.4c0.7-0.2,1.4-0.4,2.1-0.6c0,0,0.1,0.1,0.1,0.1
	c-0.6,0.6-1.1,1.2-1.7,1.8c-0.3,0.3-0.5,0.6-0.5,1c-0.1,5.7-3.3,10.6-8.3,12.4C82.3,38,78.5,37.6,74.9,35.4z"/>
<path class="st0" d="M30.5,38.7c-1.6,0-3.2,0-4.8,0c0-3.9,0-7.8,0-11.8c-0.8,0-1.5,0-2.3,0c0-1.4,0-2.7,0-4.2c0.7,0,1.5,0,2.2,0
	c0-0.8,0-1.5,0-2.2c0-0.6,0-1.2,0.2-1.8c0.4-2.1,1.8-3.4,3.9-3.6c1.4-0.1,2.8,0,4.3,0c0,1.3,0,2.6,0,4c-0.8,0-1.5,0-2.3,0
	c-0.9,0-1.3,0.3-1.3,1.3c0,0.7,0,1.5,0,2.3c1.2,0,2.4,0,3.7,0c-0.1,1.4-0.3,2.8-0.4,4.2c-1.1,0-2.1,0-3.2,0
	C30.5,30.9,30.5,34.8,30.5,38.7z"/>
</svg>
