<?xml version="1.0" encoding="utf-8"?>
<!-- Generator: Adobe Illustrator 15.0.0, SVG Export Plug-In . SVG Version: 6.00 Build 0)  -->
<!DOCTYPE svg PUBLIC "-//W3C//DTD SVG 1.1//EN" "http://www.w3.org/Graphics/SVG/1.1/DTD/svg11.dtd">
<svg version="1.1" id="Layer_2" xmlns="http://www.w3.org/2000/svg" xmlns:xlink="http://www.w3.org/1999/xlink" x="0px" y="0px"
	 width="49px" height="441px" viewBox="0 0 49 441" enable-background="new 0 0 49 441" xml:space="preserve">
<g>
	
		<line fill="none" stroke="#29A9E1" stroke-width="2.0651" stroke-miterlimit="10" x1="20.349" y1="13.633" x2="21.553" y2="25.681"/>
	
		<line fill="none" stroke="#29A9E1" stroke-width="2.0651" stroke-miterlimit="10" x1="16.908" y1="12.658" x2="19.103" y2="26.856"/>
	<polygon points="18.181,25.417 23.964,25.417 24.079,26.929 26.566,31.019 21.553,31.019 19.049,27.194 	"/>
	<path fill="none" stroke="#000000" stroke-width="1.2" stroke-linecap="round" stroke-linejoin="round" stroke-miterlimit="10" d="
		M16.881,12.654c0,0-1.612,0.396-2.105,0.664c-0.5,0.211-3.174,2.744-4.242,4.188c-0.383,1.65-1.09,5.549-1.247,7.164
		c-0.121,1.031,0.843,1.279,1.107,1.302c0.083,0.008,1.231,0.054,1.37-1.101c0.139-1.155,1.042-5.935,1.042-5.935l3.721-2.441
		c0,0-0.329,0.953-1.094,1.561c-0.766,0.606,4.405,10.774,4.405,10.774s4.979,6.637,5.034,6.723c0.057,0.087,4.125,7.06,4.125,7.06
		s0.685,1.066,2.024,0.223c1.011-0.663,0.185-2.151,0.185-2.151l-3.231-6.568l-3.894-6.933c0,0-0.219-9.646-1.807-14.529
		C22.271,12.654,20.191,14.878,16.881,12.654z"/>
	<path fill="none" stroke="#000000" stroke-width="1.2" stroke-linecap="round" stroke-linejoin="round" stroke-miterlimit="10" d="
		M14.859,39.75c0,0-1.958-2.073-0.292-3.279l5.197-3.523l2.114,2.881L14.859,39.75z"/>
	<path d="M25.423,26.424l0.071,1.483l2.257,3.758C27.751,31.666,29.025,31.191,25.423,26.424z"/>
	<path fill="none" stroke="#000000" stroke-width="1.2" stroke-linecap="round" stroke-linejoin="round" stroke-miterlimit="10" d="
		M24.868,13.491c0,0,0.704,1.385,0.827,4.507l1.97,1.581l3.614,0.673c0,0,1.15-0.076,1.244-1.315
		c0.084-1.068-1.004-1.231-1.244-1.315c-0.08-0.03-2.581-0.578-2.581-0.578L24.868,13.491z"/>
	<path fill="none" stroke="#000000" stroke-width="1.2" stroke-linecap="round" stroke-linejoin="round" stroke-miterlimit="10" d="
		M19.65,4.326c-0.429,0-2.45,0.231-2.45,2.584c0,2.354,0.961,4.602,2.449,4.602c1.489,0,2.449-2.456,2.449-4.602
		C22.098,4.767,20.223,4.326,19.65,4.326z"/>
	<circle cx="36.455" cy="39.658" r="3.5"/>
</g>
<g>
	
		<line fill="none" stroke="#29A9E1" stroke-width="2.0651" stroke-miterlimit="10" x1="27.484" y1="87.648" x2="26.313" y2="99.382"/>
	
		<line fill="none" stroke="#29A9E1" stroke-width="2.0651" stroke-miterlimit="10" x1="30.838" y1="86.699" x2="28.699" y2="100.527"/>
	<polygon points="29.598,99.125 23.965,99.125 23.854,100.597 21.428,104.581 26.313,104.581 28.753,100.855 	"/>
	<path fill="none" stroke="#000000" stroke-width="1.2" stroke-linecap="round" stroke-linejoin="round" stroke-miterlimit="10" d="
		M30.863,86.695c0,0,1.57,0.386,2.05,0.647c0.487,0.207,3.092,2.673,4.132,4.08c0.373,1.608,1.063,5.404,1.214,6.977
		c0.118,1.004-0.819,1.245-1.077,1.269c-0.08,0.007-1.199,0.053-1.334-1.073c-0.136-1.125-1.014-5.779-1.014-5.779l-3.625-2.378
		c0,0,0.318,0.928,1.066,1.52c0.744,0.59-4.291,10.493-4.291,10.493s-4.848,6.464-4.902,6.548c-0.055,0.085-4.018,6.876-4.018,6.876
		s-0.666,1.038-1.971,0.217c-0.983-0.645-0.18-2.095-0.18-2.095l3.148-6.396l3.792-6.752c0,0,0.213-9.395,1.76-14.15
		C25.613,86.695,27.641,88.861,30.863,86.695z"/>
	<path fill="none" stroke="#000000" stroke-width="1.2" stroke-linecap="round" stroke-linejoin="round" stroke-miterlimit="10" d="
		M32.833,113.085c0,0,1.905-2.02,0.283-3.194l-5.06-3.432l-2.061,2.806L32.833,113.085z"/>
	<path d="M22.544,100.105l-0.069,1.445l-2.199,3.659C20.276,105.21,19.034,104.749,22.544,100.105z"/>
	<path fill="none" stroke="#000000" stroke-width="1.2" stroke-linecap="round" stroke-linejoin="round" stroke-miterlimit="10" d="
		M23.085,87.51c0,0-0.685,1.35-0.806,4.389l-1.918,1.54l-3.521,0.656c0,0-1.121-0.074-1.213-1.281
		c-0.081-1.041,0.979-1.2,1.213-1.281c0.079-0.03,2.515-0.563,2.515-0.563L23.085,87.51z"/>
	<path fill="none" stroke="#000000" stroke-width="1.2" stroke-linecap="round" stroke-linejoin="round" stroke-miterlimit="10" d="
		M28.166,78.584c0.417,0,2.387,0.226,2.387,2.517c0,2.292-0.937,4.482-2.386,4.482c-1.451,0-2.388-2.392-2.388-4.482
		C25.782,79.013,27.607,78.584,28.166,78.584z"/>
	<circle cx="11.842" cy="112.995" r="3.409"/>
</g>
<g id="cabeza">
	<g>
		
			<path fill="none" stroke="#FFFFFF" stroke-width="1.5" stroke-linecap="round" stroke-linejoin="round" stroke-miterlimit="10" d="
			M30.021,165.393c0,0-0.166,1.637-1.842,4.488l0.853,2.535l2.835,2.668c0,0,1.068,0.59,1.861-0.461
			c0.686-0.904-0.189-1.672-0.356-1.884c-0.056-0.073-1.972-1.992-1.972-1.992L30.021,165.393z"/>
		
			<line fill="none" stroke="#29A9E1" stroke-width="2.0651" stroke-miterlimit="10" x1="25.881" y1="162.784" x2="20.059" y2="174.94"/>
		
			<line fill="none" stroke="#29A9E1" stroke-width="2.0651" stroke-miterlimit="10" x1="23.582" y1="160.62" x2="18.393" y2="172.313"/>
		
			<path fill="none" stroke="#000000" stroke-width="1.2" stroke-linecap="round" stroke-linejoin="round" stroke-miterlimit="10" d="
			M23.398,159.726c0,0-1.661-0.569-2.256-0.612c-0.566-0.097-4.397,0.63-6.173,1.306c-1.286,1.254-4.144,4.324-5.208,5.673
			c-0.698,0.848,0.02,1.621,0.242,1.792c0.069,0.053,1.065,0.752,1.85-0.198c0.784-0.95,4.321-4.693,4.321-4.693l4.712-0.049
			c0,0-0.837,0.662-1.867,0.766c-1.03,0.104-2.234,12.12-2.234,12.12s0.643,8.759,0.643,8.871c0,0.109-0.36,8.648-0.36,8.648
			s0,1.343,1.675,1.356c1.279-0.012,1.395-1.811,1.395-1.811l0.874-7.702l0.495-8.404c0,0,5.322-8.721,6.697-13.98
			C28.203,162.808,25.077,163.601,23.398,159.726z"/>
		
			<path fill="none" stroke="#000000" stroke-width="1.2" stroke-linecap="round" stroke-linejoin="round" stroke-miterlimit="10" d="
			M30.6,153.956c-0.383-0.245-2.315-1.195-3.66,0.902c-1.348,2.098-1.776,4.651-0.449,5.501c1.326,0.852,3.587-0.789,4.813-2.702
			C32.529,155.747,31.109,154.283,30.6,153.956z"/>
		
			<path fill="none" stroke="#000000" stroke-width="1.2" stroke-linecap="round" stroke-linejoin="round" stroke-miterlimit="10" d="
			M9.639,176.558c0,0,1.251-2.748,3.1-1.596l2.3,1.533l0.338,4.65L9.639,176.558z"/>
		<polygon points="17.466,171.269 23.226,174.047 21.55,176.826 21.543,179.538 17.372,179.032 16.351,175.543 		"/>
		<circle cx="36.671" cy="157.142" r="3.706"/>
		
			<path fill="none" stroke="#000000" stroke-width="1.2" stroke-linecap="round" stroke-linejoin="round" stroke-miterlimit="10" d="
			M27.438,170.247c0,0,0.236,0.432,2.254-5.565l-0.315,1.346"/>
	</g>
</g>
<g>
	
		<line fill="none" stroke="#29A9E1" stroke-width="2.0651" stroke-miterlimit="10" x1="26.869" y1="233.35" x2="24.348" y2="246.675"/>
	
		<line fill="none" stroke="#29A9E1" stroke-width="2.0651" stroke-miterlimit="10" x1="23.868" y1="233.35" x2="21.346" y2="246.675"/>
	<path fill="none" stroke="#000000" stroke-width="1.2" stroke-linecap="round" stroke-linejoin="round" stroke-miterlimit="10" d="
		M22.306,232.498c0,0-1.667,0.373-2.18,0.641c-0.518,0.204-2.692,2.829-3.822,4.293c-0.428,1.691-0.795,4.901-0.991,6.561
		c-0.145,1.056,0.839,1.332,1.112,1.363c0.084,0.006,1.265,0.078,1.432-1.104c0.168-1.187,0.489-4.776,0.489-4.776l3.516-3.033
		c0,0-0.765,1.765-1.565,2.371c-0.8,0.608,0.427,10.215,0.427,10.215s0.285,8.142,0.313,8.242c0.028,0.104,0.57,8.172,0.57,8.172
		s0.328,1.261,1.906,0.867c1.2-0.322,0.87-2.045,0.87-2.045l0.144-7.402l0.872-8.082c0,0,4.086-10.856,2.554-15.908
		C27.95,232.869,25.664,234.854,22.306,232.498z"/>
	<path fill="none" stroke="#000000" stroke-width="1.2" stroke-linecap="round" stroke-linejoin="round" stroke-miterlimit="10" d="
		M29.889,241.705l1.674,3.391c0,0,0.771,0.901,1.854,0.217c0.93-0.59,0.393-1.59,0.313-1.838c-0.024-0.084-3.502-8.438-3.502-8.438
		L29.889,241.705z"/>
	<path fill="none" stroke="#000000" stroke-width="1.2" stroke-linecap="round" stroke-linejoin="round" stroke-miterlimit="10" d="
		M26.316,224.004c-0.439-0.042-2.533-0.004-2.768,2.405c-0.234,2.409,0.527,4.807,2.053,4.954c1.524,0.148,2.752-2.273,2.965-4.471
		C28.779,224.698,26.902,224.063,26.316,224.004z"/>
	<path fill="none" stroke="#000000" stroke-width="1.2" stroke-linecap="round" stroke-linejoin="round" stroke-miterlimit="10" d="
		M17.524,261.539c-1.321,1.9-3.8,0.165-2.231-2.066l3.474-5.095l0.298,4.543C19.066,258.921,17.802,261.141,17.524,261.539z"/>
	<polygon points="20.387,245.412 26.27,246.734 25.189,249.977 24.97,252.623 20.891,252.443 20.568,248.955 	"/>
	<circle cx="32.271" cy="263.729" r="3.601"/>
</g>
<g id="penal">
	<g>
		<g>
			
				<line fill="none" stroke="#29A9E1" stroke-width="2.0651" stroke-miterlimit="10" x1="21.618" y1="315.107" x2="21.618" y2="329.228"/>
			
				<line fill="none" stroke="#29A9E1" stroke-width="2.0651" stroke-miterlimit="10" x1="24.485" y1="316.234" x2="24.485" y2="329.228"/>
			
				<line fill="none" stroke="#29A9E1" stroke-width="2.0651" stroke-miterlimit="10" x1="27.354" y1="315.107" x2="27.354" y2="329.228"/>
		</g>
		
			<path fill="none" stroke="#000000" stroke-width="1.2" stroke-linecap="round" stroke-linejoin="round" stroke-miterlimit="10" d="
			M24.536,307.315c-0.399-0.009-2.298,0.171-2.342,2.372c-0.046,2.203,0.811,4.327,2.205,4.355c1.395,0.028,2.339-2.254,2.382-4.262
			C26.818,307.773,25.073,307.326,24.536,307.315z"/>
		<polygon points="28.542,334.671 25.667,334.685 24.5,333.667 23.167,334.696 20.25,334.71 20.73,328.297 28.242,328.316 		"/>
		<circle cx="24.486" cy="345.346" r="3.278"/>
		
			<path fill="none" stroke="#000000" stroke-width="1.2" stroke-linecap="round" stroke-linejoin="round" stroke-miterlimit="10" d="
			M25.125,330.042c0,0,1.23,13.438,1.342,15.031c0.16,2.255,2.869,2.104,2.783,0c-0.067-1.669-0.941-10.983-0.941-12.263
			c0-1.278-0.082-4.908-0.082-4.908l0.158-8.124h0.532c0,0,1.438,7.665,1.701,8.787c0.385,1.653,2.582,1.298,2.181-0.62
			c-0.354-1.695-2.015-11.458-2.466-11.761c-0.45-0.3-3.12-1.166-3.12-1.166c-0.716,0.941-1.75,1.229-2.727,1.204
			c-0.978,0.023-2.012-0.263-2.727-1.204c0,0-2.641,0.866-3.092,1.166c-0.451,0.303-2.082,10.064-2.438,11.761
			c-0.401,1.918,1.796,2.273,2.182,0.62c0.257-1.104,1.63-8.787,1.63-8.787h0.543l0.159,8.124c0,0-0.577,3.631-0.577,4.908
			c0,1.278-0.732,10.594-0.798,12.263c-0.086,2.104,2.623,2.255,2.783,0C22.213,344.206,23.917,330,23.917,330L25.125,330.042z"/>
	</g>
</g>
<g id="mano">
	<g>
		
			<path fill="none" stroke="#000000" stroke-width="1.2" stroke-linecap="round" stroke-linejoin="round" stroke-miterlimit="10" d="
			M14.313,425.264c-1.289,1.854-3.706,0.162-2.175-2.014l4.833-7.089l0.742,4.239C17.713,420.4,14.889,424.436,14.313,425.264z"/>
		
			<line fill="none" stroke="#29A9E1" stroke-width="2.0651" stroke-miterlimit="10" x1="26.436" y1="399.731" x2="21.823" y2="411.636"/>
		
			<line fill="none" stroke="#29A9E1" stroke-width="2.0651" stroke-miterlimit="10" x1="24.242" y1="397.549" x2="20.059" y2="409.277"/>
		
			<path fill="none" stroke="#000000" stroke-width="1.2" stroke-linecap="round" stroke-linejoin="round" stroke-miterlimit="10" d="
			M23.868,397.024c0,0-1.61-0.416-2.175-0.413c-0.542-0.052-4.108,0.916-5.736,1.685c-1.124,1.276-3.599,4.385-4.505,5.737
			c-0.597,0.852,0.138,1.528,0.36,1.676c0.068,0.045,1.062,0.632,1.731-0.321c0.672-0.955,3.74-4.748,3.74-4.748l4.446-0.39
			c0,0-0.742,0.684-1.707,0.858c-0.965,0.173-1.226,11.609-1.226,11.609s1.245,8.228,1.252,8.332
			c0.009,0.104-1.962,7.992-1.962,7.992s0.098,1.269,1.681,1.16c1.207-0.105,1.186-1.814,1.186-1.814l2.516-7.137l-0.146-7.974
			c0,0,4.39-8.624,5.306-13.691C28.631,399.584,25.736,400.563,23.868,397.024z"/>
		
			<path fill="none" stroke="#000000" stroke-width="1.2" stroke-linecap="round" stroke-linejoin="round" stroke-miterlimit="10" d="
			M30.001,403.372l7.834,2.76c0,0,1.155,0.046,1.382-1.18c0.197-1.058-0.869-1.336-1.101-1.444
			c-0.078-0.039-7.321-2.988-7.321-2.988L30.001,403.372z"/>
		
			<path fill="none" stroke="#000000" stroke-width="1.2" stroke-linecap="round" stroke-linejoin="round" stroke-miterlimit="10" d="
			M30.113,390.899c-0.379-0.203-2.273-0.96-3.393,1.118c-1.119,2.079-1.338,4.522-0.021,5.229c1.316,0.708,3.33-1.006,4.35-2.901
			C32.068,392.451,30.619,391.171,30.113,390.899z"/>
		<polygon points="19.106,408.36 24.75,410.563 23.368,413.308 23.561,415.872 19.583,415.697 18.366,412.478 		"/>
		<circle cx="36.266" cy="404.396" r="3.511"/>
	</g>
</g>
</svg>
