<?xml version="1.0" encoding="utf-8"?>
<!-- Generator: Adobe Illustrator 15.0.0, SVG Export Plug-In . SVG Version: 6.00 Build 0)  -->
<!DOCTYPE svg PUBLIC "-//W3C//DTD SVG 1.1//EN" "http://www.w3.org/Graphics/SVG/1.1/DTD/svg11.dtd">
<svg version="1.1" id="Layer_1" xmlns="http://www.w3.org/2000/svg" xmlns:xlink="http://www.w3.org/1999/xlink" x="0px" y="0px"
	 width="130.363px" height="180.606px" viewBox="0 0 130.363 180.606" enable-background="new 0 0 130.363 180.606"
	 xml:space="preserve">
<g>
	<path fill="#FFFFFF" d="M80,55.44c0,7.667-6.413,13.94-14.25,13.94S51.5,63.107,51.5,55.44S57.913,41.5,65.75,41.5
		S80,47.773,80,55.44z"/>
	<path fill="none" stroke="#B3B3B3" stroke-miterlimit="10" d="M80,55.44c0,7.667-6.413,13.94-14.25,13.94S51.5,63.107,51.5,55.44
		S57.913,41.5,65.75,41.5S80,47.773,80,55.44z"/>
</g>
<g>
	<path fill="#FFFFFF" d="M80,89.517c0,7.667-6.413,13.94-14.25,13.94S51.5,97.184,51.5,89.517s6.413-13.94,14.25-13.94
		S80,81.85,80,89.517z"/>
	<path fill="none" stroke="#B3B3B3" stroke-miterlimit="10" d="M80,89.517c0,7.667-6.413,13.94-14.25,13.94S51.5,97.184,51.5,89.517
		s6.413-13.94,14.25-13.94S80,81.85,80,89.517z"/>
</g>
<g>
	<path fill="#FFFFFF" d="M80,134.592c0,7.667-6.413,13.94-14.25,13.94s-14.25-6.273-14.25-13.94s6.413-13.94,14.25-13.94
		S80,126.925,80,134.592z"/>
	<path fill="none" stroke="#B3B3B3" stroke-miterlimit="10" d="M80,134.592c0,7.667-6.413,13.94-14.25,13.94
		s-14.25-6.273-14.25-13.94s6.413-13.94,14.25-13.94S80,126.925,80,134.592z"/>
</g>
<g>
	<path fill="#FFFFFF" d="M126,69.592c0,7.667-6.413,13.94-14.25,13.94S97.5,77.259,97.5,69.592s6.413-13.94,14.25-13.94
		S126,61.925,126,69.592z"/>
	<path fill="none" stroke="#B3B3B3" stroke-miterlimit="10" d="M126,69.592c0,7.667-6.413,13.94-14.25,13.94
		S97.5,77.259,97.5,69.592s6.413-13.94,14.25-13.94S126,61.925,126,69.592z"/>
</g>
<g>
	<path fill="#FFFFFF" d="M34,69.592c0,7.667-6.413,13.94-14.25,13.94S5.5,77.259,5.5,69.592s6.413-13.94,14.25-13.94
		S34,61.925,34,69.592z"/>
	<path fill="none" stroke="#B3B3B3" stroke-miterlimit="10" d="M34,69.592c0,7.667-6.413,13.94-14.25,13.94S5.5,77.259,5.5,69.592
		s6.413-13.94,14.25-13.94S34,61.925,34,69.592z"/>
</g>
<line fill="none" stroke="#B3B3B3" stroke-width="2" stroke-miterlimit="10" x1="66" y1="51" x2="66" y2="61"/>
<line fill="none" stroke="#B3B3B3" stroke-width="2" stroke-miterlimit="10" x1="71" y1="56" x2="61" y2="56"/>
<line fill="none" stroke="#B3B3B3" stroke-width="2" stroke-miterlimit="10" x1="71" y1="90" x2="60" y2="90"/>
<g>
	<line fill="#FFFFFF" stroke="#B3B3B3" stroke-miterlimit="10" x1="61.638" y1="130.893" x2="69.598" y2="138.852"/>
	<line fill="#FFFFFF" stroke="#B3B3B3" stroke-miterlimit="10" x1="61.639" y1="138.852" x2="69.598" y2="130.892"/>
</g>
<polyline fill="#FFFFFF" stroke="#B3B3B3" stroke-miterlimit="10" points="21.489,76.447 15.553,69.511 21.011,63.053 "/>
<polyline fill="#FFFFFF" stroke="#B3B3B3" stroke-miterlimit="10" points="109.011,63.053 114.947,69.989 109.489,76.446 "/>
</svg>
